<svg width="200px" height="200px" viewBox="0 0 200 200" xmlns="http://www.w3.org/2000/svg">
  <defs>
    <linearGradient id="grad1" x1="0%" y1="0%" x2="100%" y2="0%">
      <stop offset="0%" style="stop-color:#2C3E50;stop-opacity:1" />
      <stop offset="100%" style="stop-color:#3498DB;stop-opacity:1" />
    </linearGradient>
  </defs>
  <g transform="translate(20, 20) scale(0.8)">
    <path d="M40,0 L80,0 L60,200 L20,200 Z" fill="#2C3E50"/>
    
    <path d="M90,10 C150,10 180,50 180,90 C180,120 160,140 130,150 L180,200 L130,200 L85,155 L105,130 L125,150 C145,140 155,120 155,95 C155,70 135,40 95,40 L75,40 L65,130 L90,130 L100,35 L90,10 Z" fill="#2C3E50"/>
  </g>
</svg>